# xmcd
#
# Track frame offsets:
#	150
#	15990
#	40482
#	58183
#	76603
#	93927
#	110422
#	128255
#	143322
#	157807
#	172855
#	185787
#	198750
#	214738
#	231000
#	247285
#	265572
#	283039
#
# Disc length: 4020 seconds
#
# Revision: 1
# Processed by: cddbd v1.5.1PL0 Copyright (c) Steve Scherf et al.
# Submitted via: EasyCDDAExtractor 8.2.1.1
#
DISCID=e00fb212
DTITLE=фгма пецйу - латымы
DYEAR=2004
DGENRE=казйа
TTITLE0=латымы
TTITLE1=поухема LONG VERSION
TTITLE2=ежуцес
TTITLE3=диыне тгм пийяа
TTITLE4=опоиос йи ам еисаи
TTITLE5=коциа
TTITLE6=выяис жтеяа
TTITLE7=ломава елема ма яытас
TTITLE8=ека йаядиа лоу
TTITLE9=лиа бяадуа выяислоу
TTITLE10=поу та кес аута
TTITLE11=тыяа поу то сйежтгйес
TTITLE12=оса паиямеи о амелос
TTITLE13=мувта лг ле лакымеис
TTITLE14=отам пежтеи ема астеяи
TTITLE15=де кееи
TTITLE16=дем вяеиафетаи
TTITLE17=поухема RADIO VERSION
EXTD=
EXTT0=
EXTT1=
EXTT2=
EXTT3=
EXTT4=
EXTT5=
EXTT6=
EXTT7=
EXTT8=
EXTT9=
EXTT10=
EXTT11=
EXTT12=
EXTT13=
EXTT14=
EXTT15=
EXTT16=
EXTT17=
PLAYORDER=
